<svg xmlns="http://www.w3.org/2000/svg" xml:space="preserve" width="20" height="20"><path fill="#FFF" d="M16.291 6.013c-.237-.732.529-1.982.086-2.591-.446-.614-1.875-.27-2.49-.717-.609-.442-.721-1.911-1.451-2.148-.706-.229-1.655.887-2.437.887-.782 0-1.731-1.116-2.437-.887-.731.237-.842 1.706-1.451 2.15-.614.446-2.043.101-2.49.715-.444.61.323 1.86.086 2.591-.229.706-1.592 1.263-1.592 2.045 0 .781 1.363 1.339 1.593 2.044.237.732-.53 1.982-.087 2.591.447.613 1.876.27 2.491.717.026.018.05.039.075.061l-.382 1.037-.438 1.193-.765 2.076c-.121.328.042.479.359.334l1.517-.686a.647.647 0 0 1 .849.313l.708 1.504c.149.316.369.309.49-.021l.764-2.076.438-1.193.258-.701.257.701.438 1.193.764 2.076c.121.33.342.338.49.021l.709-1.504a.65.65 0 0 1 .85-.313l1.517.686c.319.145.479-.006.358-.334l-.765-2.076-.438-1.193-.375-1.018a.885.885 0 0 1 .096-.08c.615-.447 2.044-.102 2.492-.717.441-.609-.324-1.859-.087-2.59.229-.706 1.593-1.264 1.593-2.045.001-.783-1.363-1.34-1.593-2.045zm-6.261 6.612a4.304 4.304 0 1 1 .001-8.607 4.304 4.304 0 0 1-.001 8.607z"/></svg>
