<svg fill="#FFFFFF" xmlns="http://www.w3.org/2000/svg" xml:space="preserve" width="20" height="20"><path d="m15.339 7.068-2.185-2.185-3.375-3.375C9.178.907 7.995.494 7.151.59l-4.311.489c-.843.095-1.591.866-1.662 1.713L.843 6.847c-.07.847.364 2.031.965 2.632l3.375 3.376 2.184 2.184 3.376 3.376a1.55 1.55 0 0 0 2.185 0l1.801-1.801 2.186-2.185 1.8-1.802a1.546 1.546 0 0 0 0-2.184l-3.376-3.375zM5.306 5.051a1.4 1.4 0 1 1-1.981-1.98 1.4 1.4 0 0 1 1.981 1.98zm7.799 4.537-.02.164c-.048.177-.214.292-.368.257a3.478 3.478 0 0 1-.471-.143l-.063-.063a.44.44 0 0 1-.124-.336 1.58 1.58 0 0 0-.031-.353.57.57 0 0 0-.155-.262c-.151-.15-.315-.209-.493-.178l-.178.032c-.211.17-.52.446-.686.612-.166.166-.063.539.227.83.291.29.455.602.364.692-.09.091-.19.186-.225.212l-.037.014a.302.302 0 0 1-.118.018.316.316 0 0 1-.123-.026l-.041-.017a15.304 15.304 0 0 1-.482-.47c-.225-.225-.506-.312-.625-.192-.12.119-.322.303-.45.408l-.131.048-.132.048c-.159.02-.198.095-.088.169l.093.074.094.072c.097.091.489.479.873.862.385.385.619.777.522.875a5.334 5.334 0 0 1-.268.25l-.06.025a.52.52 0 0 1-.388.01l-.067-.024a57.118 57.118 0 0 1-1.209-1.187l-.468-.47c-.602-.601-.977-1.208-.834-1.351.142-.142.326-.217.407-.168l.082.033c.08.032.161.052.24.057a.596.596 0 0 0 .236-.031l.078-.026c.078-.063.291-.264.473-.447.18-.179.213-.444.07-.586-.141-.143-.198-.319-.125-.393.074-.073.207-.185.296-.248l.102-.008.103-.007c.105.076.244.191.309.255.064.065.252-.018.416-.183.166-.165.467-.443.671-.617l.212-.105c.213-.104.434-.162.665-.172.23-.011.465.032.702.126.237.095.469.255.695.481.149.15.267.305.351.464a1.65 1.65 0 0 1 .179.975z"/></svg>
