<svg version="1.1" id="Layer_1" xmlns="http://www.w3.org/2000/svg" xmlns:xlink="http://www.w3.org/1999/xlink" x="0px" y="0px"
	 width="32px" height="32px" viewBox="0 0 32 32" enable-background="new 0 0 32 32" xml:space="preserve">
<g>
	<path d="M15.495,3.547c0.243-0.493,0.642-0.493,0.885,0l3.432,6.953c0.243,0.494,0.888,0.961,1.432,1.041l7.675,1.115
		c0.544,0.079,0.667,0.458,0.273,0.841l-5.554,5.413c-0.394,0.384-0.64,1.142-0.547,1.684l1.312,7.644
		c0.093,0.542-0.229,0.776-0.716,0.52l-6.864-3.607c-0.487-0.257-1.284-0.257-1.771-0.001l-6.864,3.609
		c-0.487,0.256-0.809,0.021-0.716-0.521l1.312-7.644c0.093-0.542-0.153-1.3-0.547-1.684l-5.553-5.413
		c-0.394-0.384-0.271-0.762,0.273-0.841l7.673-1.115c0.544-0.079,1.189-0.547,1.432-1.04L15.495,3.547z"/>
	<path fill="#f4eb2a" stroke="#f4eb2a" stroke-miterlimit="10" d="M15.495,3.547c0.243-0.493,0.642-0.493,0.885,0l3.432,6.953
		c0.243,0.494,0.888,0.961,1.432,1.041l7.675,1.115c0.544,0.079,0.667,0.458,0.273,0.841l-5.554,5.413
		c-0.394,0.384-0.64,1.142-0.547,1.684l1.312,7.644c0.093,0.542-0.229,0.776-0.716,0.52l-6.864-3.607
		c-0.487-0.257-1.284-0.257-1.771-0.001l-6.864,3.609c-0.487,0.256-0.809,0.021-0.716-0.521l1.312-7.644
		c0.093-0.542-0.153-1.3-0.547-1.684l-5.553-5.413c-0.394-0.384-0.271-0.762,0.273-0.841l7.673-1.115
		c0.544-0.079,1.189-0.547,1.432-1.04L15.495,3.547z"/>
</g>
</svg>
