<?xml version="1.0" encoding="utf-8"?>
<!-- Generator: Adobe Illustrator 16.0.0, SVG Export Plug-In . SVG Version: 6.00 Build 0)  -->
<!DOCTYPE svg PUBLIC "-//W3C//DTD SVG 1.1//EN" "http://www.w3.org/Graphics/SVG/1.1/DTD/svg11.dtd">
<svg version="1.1" id="Layer_1" xmlns="http://www.w3.org/2000/svg" xmlns:xlink="http://www.w3.org/1999/xlink" x="0px" y="0px"
	 width="89.167px" height="60px" viewBox="0 0 89.167 60" enable-background="new 0 0 89.167 60" xml:space="preserve">
<g display="none">
	<path display="inline" fill="#757575" d="M45.566,36.476l2.615,6.864h-5.066L45.566,36.476L45.566,36.476z M44.585,34.176
		l-5.72,15.033h2.125l1.47-4.083h6.372l1.47,4.083h2.125l-5.721-15.033h-2.124H44.585z M75.461,49.223h1.972V34.188h-1.972V49.22
		V49.223z M55.37,40.387c0.655-0.981,1.972-1.799,3.269-1.799c2.614,0,3.922,1.799,3.922,4.412v6.372H60.59v-6.046
		c0-2.123-1.145-2.941-2.615-2.941c-1.634,0-2.778,1.636-2.778,3.104v5.721h-1.971V38.766h1.971l0.165,1.635L55.37,40.387z
		 M64.195,46.117c0-2.3,2.123-3.596,4.576-3.596c1.471,0,2.453,0.329,2.778,0.653v-0.329c0-1.633-1.308-2.452-2.615-2.452
		c-1.145,0-2.124,0.492-2.454,1.471l-1.796-0.817c0.327-0.981,1.634-2.452,4.248-2.452c2.452,0,4.576,1.471,4.576,4.413v6.21h-1.797
		v-1.471h-0.165c-0.49,0.816-1.634,1.798-3.432,1.798c-2.124,0-3.922-1.308-3.922-3.432 M71.547,44.807c0,0-0.816-0.654-2.452-0.654
		c-1.971,0-2.778,1.145-2.778,1.971c0,1.146,1.144,1.635,2.123,1.635c1.473,0,3.105-1.306,3.105-2.941"/>
	<path display="inline" fill="#757575" d="M80.21,53.799l2.301-5.394l-4.084-9.478h1.97l3.105,7.189l3.104-7.189h1.971
		l-6.372,14.871h-1.971H80.21z M108.974,42.357c-0.491-1.308-1.635-2.124-2.778-2.124c-1.636,0-3.105,1.471-3.105,3.595
		c0,2.125,1.47,3.596,3.105,3.596c1.146,0,2.3-0.816,2.778-1.971l1.634,0.981c-0.816,1.798-2.452,2.942-4.412,2.942
		c-2.777,0-5.066-2.453-5.066-5.557c0-3.27,2.301-5.557,5.066-5.557c1.971,0,3.596,1.144,4.412,2.941l-1.634,1.145V42.357z"/>
	<path display="inline" fill="#757575" d="M115.999,49.548c2.615,0,3.922-1.47,3.922-3.268c0-3.922-5.721-2.453-5.721-4.738
		c0-0.817,0.654-1.307,1.799-1.307s2.299,0.489,2.778,1.307l1.144-1.145c-0.653-0.816-2.452-1.972-4.084-1.972
		c-2.452,0-3.759,1.471-3.759,3.27c0,3.758,5.883,2.452,5.883,4.412c0,0.981-0.653,1.635-1.971,1.635
		c-1.316,0-1.97-0.817-2.615-1.635l-1.45,1.154c0.98,0.981,2.451,2.3,4.083,2.3L115.999,49.548z M97.37,49.223h1.97v-10.46h-1.97
		V49.223z"/>
	<path display="inline" fill="#757575" d="M98.186,33.708c0.817,0,1.309,0.652,1.309,1.307c0,0.817-0.654,1.308-1.309,1.308
		c-0.651,0-1.306-0.652-1.306-1.308C96.88,34.36,97.534,33.708,98.186,33.708z M95.408,47.599l0.329,1.47h-1.971
		c-1.797,0-2.614-1.306-2.614-3.267v-5.087h-1.972v-1.97h1.972v-3.087h1.97v3.104h2.3v1.973h-2.3v5.392
		c0,1.471,1.145,1.471,2.3,1.471L95.408,47.599z"/>
	<path display="inline" fill="#757575" d="M48.802,17.566v2.453h5.719c-0.164,1.307-0.654,2.299-1.307,2.941
		c-0.817,0.817-2.124,1.798-4.413,1.798c-3.431,0-6.21-2.777-6.21-6.372c0-3.431,2.778-6.372,6.21-6.372
		c1.971,0,3.269,0.816,4.248,1.634l1.635-1.634c-1.47-1.308-3.269-2.453-5.883-2.453c-4.739,0-8.825,3.922-8.825,8.649
		c0,4.728,4.083,8.65,8.825,8.65c2.614,0,4.577-0.817,6.046-2.453c1.634-1.635,2.124-3.759,2.124-5.557c0-0.49,0-1.144-0.165-1.47
		H48.8L48.802,17.566z M63.345,15.596c-3.105,0-5.558,2.299-5.558,5.556s2.453,5.557,5.558,5.557
		c3.04,0.027,5.528-2.417,5.555-5.458c0.001-0.033,0.001-0.066,0-0.099C68.899,17.884,66.448,15.596,63.345,15.596z M63.345,24.574
		c-1.636,0-3.105-1.47-3.105-3.431c0-1.961,1.47-3.42,3.105-3.42c1.635,0,3.105,1.313,3.105,3.426c0,2.114-1.47,3.432-3.104,3.432
		L63.345,24.574z M90.136,16.739c-0.653-0.654-1.635-1.307-3.104-1.307c-2.779,0-5.23,2.453-5.23,5.557s2.452,5.557,5.23,5.557
		c1.307,0,2.452-0.654,2.94-1.308h0.165v0.817c0,2.124-1.145,3.268-2.941,3.268c-1.47,0-2.453-1.144-2.778-1.97l-2.124,0.816
		c0.654,1.47,2.299,3.269,4.903,3.269c2.941,0,5.392-1.636,5.392-5.884V15.423h-2.299v1.308L90.136,16.739z M87.359,24.583
		c-1.636,0-2.943-1.471-2.943-3.432s1.308-3.431,2.943-3.431c1.633,0,2.94,1.47,2.94,3.431S88.992,24.583,87.359,24.583z
		 M75.427,15.604c-3.105,0-5.556,2.299-5.556,5.557s2.452,5.556,5.556,5.556c3.042,0.028,5.529-2.416,5.558-5.457
		c0-0.033,0-0.066,0-0.1C81.147,17.893,78.531,15.604,75.427,15.604z M75.427,24.583c-1.635,0-3.105-1.471-3.105-3.432
		s1.471-3.431,3.105-3.431c1.636,0,3.105,1.307,3.105,3.431S77.063,24.583,75.427,24.583z M94.405,9.723h2.453v16.994h-2.453V9.723z
		 M103.557,24.594c-1.307,0-2.124-0.654-2.777-1.635l7.518-3.104l-0.328-0.653c-0.491-1.308-1.972-3.596-4.74-3.596
		c-2.94,0-5.229,2.299-5.229,5.557c-0.026,3.042,2.416,5.529,5.458,5.556c0.032,0,0.065,0,0.099,0c2.614,0,4.085-1.634,4.739-2.452
		l-1.972-1.308c-0.654,0.981-1.47,1.635-2.777,1.635L103.557,24.594z M103.393,17.729c0.981,0,1.797,0.491,2.124,1.308l-5.066,2.124
		C100.45,18.708,102.085,17.729,103.393,17.729z"/>
</g>
<g transform="matrix(.198617 0 0 .198616 29.128442 -18.08775)" display="none">
	<path display="inline" fill="#F9AB00" d="M-22.772,166.911v144.53c0,16.172,11.168,25.179,22.996,25.179
		c10.945,0,22.993-7.66,22.993-25.179V168.008c0-14.824-10.95-24.088-22.993-24.088C-11.825,143.92-22.772,154.14-22.772,166.911z"
		/>
	<g display="inline">
		<path fill="#E37400" d="M-82.989,240.273v71.169c0,16.172,11.168,25.179,22.991,25.179c10.947,0,22.993-7.66,22.993-25.179v-70.08
			c0-14.819-10.95-24.083-22.993-24.083S-82.989,227.494-82.989,240.273z"/>
		<circle fill="#E37400" cx="-120.216" cy="313.627" r="22.993"/>
	</g>
</g>
<path fill="#008373" d="M1.358,11.79l7.413,2.608v26.096l10.442-6.029l-5.12-2.4l-3.232-8.039l16.454,5.78v8.403L8.766,48.902
	l-7.417-4.127L1.358,11.79z M35.082,42.697V21.37h6.068c1.845,0,3.307,0.451,4.389,1.354c1.08,0.903,1.63,2.077,1.63,3.525
	c0,1.209-0.326,2.26-0.983,3.164c-0.656,0.903-1.564,1.517-2.715,1.893v0.059c1.438,0.17,2.588,0.712,3.45,1.631
	c0.864,0.917,1.295,2.108,1.295,3.576c0,1.823-0.654,3.303-1.963,4.433c-1.309,1.128-2.96,1.696-4.953,1.696L35.082,42.697z
	 M37.58,23.62v6.886h2.557c1.37,0,2.446-0.329,3.229-0.989c0.783-0.659,1.176-1.589,1.176-2.78c0-2.072-1.364-3.108-4.089-3.108
	L37.58,23.62z M37.58,32.753v7.673h3.391c1.467,0,2.604-0.347,3.413-1.041c0.81-0.692,1.212-1.646,1.212-2.854
	c0-2.52-1.726-3.779-5.146-3.779L37.58,32.753z M52.646,24.081c-0.418,0.009-0.82-0.153-1.116-0.446
	c-0.307-0.295-0.474-0.705-0.461-1.13c-0.013-0.427,0.154-0.839,0.46-1.138c0.293-0.297,0.698-0.462,1.115-0.453
	c0.446,0,0.826,0.151,1.139,0.453c0.315,0.294,0.489,0.708,0.479,1.138c0.007,0.421-0.163,0.826-0.47,1.116
	c-0.3,0.302-0.71,0.469-1.137,0.46L52.646,24.081z M53.834,42.699h-2.439V27.582h2.429L53.834,42.699z M70.407,42.697H67.97v-8.574
	c0-3.234-1.09-4.85-3.449-4.85c-1.166-0.025-2.278,0.48-3.027,1.376c-0.797,0.917-1.199,2.076-1.199,3.474v8.574h-2.437V27.582
	h2.437v2.476h0.061c1.151-1.923,2.78-2.837,4.907-2.837c1.665,0,2.94,0.537,3.822,1.613c0.882,1.078,1.323,2.63,1.323,4.664V42.697z
	 M87.501,41.409c0,5.592-2.678,8.389-8.031,8.389c-1.884,0-3.437-0.336-4.846-1.049l0.641-2.091c0,0,1.654,1.099,4.176,1.099
	c3.738,0,5.62-1.958,5.62-5.943v-1.649h-0.06c-1.149,1.942-2.793,2.891-5.122,2.891c-1.896,0-3.42-0.57-4.574-1.924
	c-1.154-1.354-1.731-3.171-1.731-5.452c0-2.587,0.621-4.646,1.868-6.171c1.243-1.527,2.944-2.302,5.108-2.302
	c2.051,0,3.463,0.823,4.455,2.469h0.061v-2.093h2.438L87.501,41.409z M85.061,35.811v-2.124c0.023-1.159-0.419-2.277-1.227-3.108
	c-0.817-0.862-1.766-1.294-2.984-1.294c-1.506,0-2.687,0.546-3.541,1.642c-0.852,1.099-1.277,2.631-1.277,4.605
	c0,1.697,0.409,2.929,1.228,3.946s1.901,1.535,3.261,1.535c1.366,0,2.409-0.488,3.257-1.457c0.851-0.973,1.289-2.218,1.289-3.733
	L85.061,35.811z"/>
</svg>
