<?xml version="1.0" encoding="utf-8"?>
<!-- Generator: Adobe Illustrator 16.0.0, SVG Export Plug-In . SVG Version: 6.00 Build 0)  -->
<!DOCTYPE svg PUBLIC "-//W3C//DTD SVG 1.1//EN" "http://www.w3.org/Graphics/SVG/1.1/DTD/svg11.dtd">
<svg version="1.1" id="Layer_1" xmlns="http://www.w3.org/2000/svg" xmlns:xlink="http://www.w3.org/1999/xlink" x="0px" y="0px"
	 width="120px" height="60px" viewBox="0 0 120 60" enable-background="new 0 0 120 60" xml:space="preserve">
<g display="none">
	<path display="inline" fill="#757575" d="M45.566,36.477l2.615,6.863h-5.066L45.566,36.477L45.566,36.477z M44.585,34.176
		l-5.72,15.033h2.125l1.47-4.083h6.372l1.47,4.083h2.125l-5.721-15.033h-2.124H44.585z M75.461,49.223h1.973V34.188h-1.973V49.22
		V49.223z M55.37,40.387c0.655-0.98,1.972-1.799,3.269-1.799c2.614,0,3.921,1.799,3.921,4.412v6.372H60.59v-6.046
		c0-2.123-1.145-2.941-2.615-2.941c-1.634,0-2.778,1.637-2.778,3.104v5.721h-1.971V38.766h1.971l0.165,1.635L55.37,40.387z
		 M64.195,46.117c0-2.301,2.123-3.596,4.576-3.596c1.471,0,2.453,0.328,2.777,0.652v-0.329c0-1.633-1.308-2.452-2.615-2.452
		c-1.145,0-2.123,0.492-2.453,1.472l-1.797-0.817c0.328-0.98,1.635-2.452,4.248-2.452c2.452,0,4.576,1.472,4.576,4.413v6.21h-1.797
		v-1.471h-0.165c-0.489,0.815-1.634,1.798-3.433,1.798c-2.123,0-3.922-1.309-3.922-3.432 M71.547,44.807
		c0,0-0.816-0.654-2.451-0.654c-1.972,0-2.779,1.146-2.779,1.972c0,1.146,1.145,1.635,2.123,1.635c1.474,0,3.105-1.306,3.105-2.94"
		/>
	<path display="inline" fill="#757575" d="M80.21,53.799l2.302-5.394l-4.085-9.479h1.97l3.105,7.189l3.104-7.189h1.972
		l-6.372,14.871h-1.971L80.21,53.799L80.21,53.799z M108.975,42.357c-0.492-1.309-1.636-2.125-2.779-2.125
		c-1.635,0-3.104,1.472-3.104,3.596c0,2.125,1.47,3.596,3.104,3.596c1.146,0,2.301-0.816,2.779-1.971l1.633,0.98
		c-0.815,1.799-2.451,2.942-4.412,2.942c-2.776,0-5.065-2.453-5.065-5.558c0-3.27,2.302-5.557,5.065-5.557
		c1.972,0,3.597,1.145,4.412,2.941l-1.633,1.145V42.357z"/>
	<path display="inline" fill="#757575" d="M115.999,49.548c2.614,0,3.922-1.47,3.922-3.268c0-3.923-5.721-2.453-5.721-4.738
		c0-0.817,0.653-1.308,1.799-1.308s2.299,0.49,2.778,1.308l1.144-1.146c-0.653-0.815-2.452-1.972-4.084-1.972
		c-2.452,0-3.759,1.472-3.759,3.271c0,3.758,5.883,2.451,5.883,4.412c0,0.98-0.652,1.635-1.971,1.635
		c-1.316,0-1.971-0.817-2.615-1.635l-1.45,1.153c0.979,0.981,2.451,2.3,4.083,2.3L115.999,49.548z M97.37,49.223h1.97V38.764h-1.97
		V49.223z"/>
	<path display="inline" fill="#757575" d="M98.186,33.708c0.817,0,1.31,0.651,1.31,1.308c0,0.816-0.654,1.308-1.31,1.308
		c-0.65,0-1.306-0.652-1.306-1.308C96.88,34.359,97.534,33.708,98.186,33.708z M95.408,47.6l0.328,1.469h-1.971
		c-1.797,0-2.613-1.305-2.613-3.267v-5.087H89.18v-1.97h1.973v-3.087h1.97v3.104h2.3v1.973h-2.3v5.393
		c0,1.471,1.146,1.471,2.3,1.471L95.408,47.6z"/>
	<path display="inline" fill="#757575" d="M48.802,17.566v2.453h5.719c-0.164,1.307-0.654,2.299-1.307,2.941
		c-0.817,0.817-2.124,1.798-4.413,1.798c-3.431,0-6.21-2.777-6.21-6.372c0-3.431,2.778-6.372,6.21-6.372
		c1.971,0,3.269,0.816,4.248,1.634l1.635-1.634c-1.47-1.308-3.269-2.453-5.883-2.453c-4.739,0-8.825,3.922-8.825,8.649
		c0,4.728,4.083,8.65,8.825,8.65c2.614,0,4.577-0.817,6.046-2.453c1.634-1.635,2.124-3.759,2.124-5.557c0-0.49,0-1.144-0.165-1.47
		H48.8L48.802,17.566z M63.346,15.596c-3.105,0-5.559,2.299-5.559,5.556c0,3.257,2.453,5.557,5.559,5.557
		c3.039,0.027,5.527-2.417,5.555-5.458c0-0.033,0-0.066,0-0.099C68.898,17.884,66.448,15.596,63.346,15.596z M63.346,24.574
		c-1.637,0-3.105-1.47-3.105-3.431s1.47-3.42,3.105-3.42c1.635,0,3.104,1.313,3.104,3.426c0,2.114-1.47,3.432-3.104,3.432V24.574z
		 M90.137,16.739c-0.654-0.654-1.636-1.307-3.104-1.307c-2.779,0-5.23,2.453-5.23,5.557c0,3.104,2.452,5.557,5.23,5.557
		c1.307,0,2.452-0.654,2.94-1.308h0.164v0.817c0,2.124-1.145,3.268-2.941,3.268c-1.469,0-2.452-1.144-2.777-1.97l-2.124,0.816
		c0.654,1.47,2.299,3.269,4.903,3.269c2.941,0,5.392-1.636,5.392-5.883V15.423H90.29v1.308L90.137,16.739z M87.359,24.583
		c-1.637,0-2.943-1.471-2.943-3.432s1.309-3.431,2.943-3.431c1.633,0,2.939,1.47,2.939,3.431S88.992,24.583,87.359,24.583z
		 M75.427,15.604c-3.104,0-5.556,2.299-5.556,5.557c0,3.258,2.452,5.556,5.556,5.556c3.042,0.028,5.529-2.416,5.558-5.457
		c0-0.033,0-0.066,0-0.1C81.146,17.893,78.531,15.604,75.427,15.604z M75.427,24.583c-1.635,0-3.104-1.471-3.104-3.432
		s1.471-3.431,3.104-3.431c1.636,0,3.105,1.307,3.105,3.431S77.063,24.583,75.427,24.583z M94.404,9.723h2.453v16.994h-2.453V9.723z
		 M103.557,24.594c-1.307,0-2.123-0.654-2.777-1.635l7.519-3.104l-0.327-0.653c-0.492-1.308-1.973-3.596-4.74-3.596
		c-2.94,0-5.229,2.299-5.229,5.557c-0.026,3.042,2.416,5.529,5.458,5.556c0.032,0,0.064,0,0.1,0c2.613,0,4.084-1.634,4.738-2.452
		l-1.972-1.308c-0.654,0.981-1.47,1.635-2.777,1.635H103.557z M103.393,17.729c0.981,0,1.797,0.491,2.125,1.308l-5.066,2.124
		C100.45,18.708,102.085,17.729,103.393,17.729z"/>
</g>
<g transform="matrix(.198617 0 0 .198616 29.128442 -18.08775)" display="none">
	<path display="inline" fill="#F9AB00" d="M-22.772,166.911v144.53c0,16.172,11.168,25.179,22.996,25.179
		c10.945,0,22.993-7.661,22.993-25.179V168.008c0-14.824-10.95-24.088-22.993-24.088C-11.825,143.92-22.772,154.14-22.772,166.911z"
		/>
	<g display="inline">
		<path fill="#E37400" d="M-82.989,240.273v71.169c0,16.172,11.169,25.179,22.991,25.179c10.947,0,22.993-7.661,22.993-25.179
			v-70.08c0-14.819-10.952-24.083-22.993-24.083C-72.041,217.279-82.989,227.494-82.989,240.273z"/>
		<circle fill="#E37400" cx="-120.216" cy="313.627" r="22.993"/>
	</g>
</g>
<path fill="#1877F2" d="M9.97,39.746H5.652V28.983H2.711v-3.504h2.941v-2.493c0-2.955,1.301-5.074,5.606-5.074
	c0.911,0,2.34,0.184,2.34,0.184v3.254h-1.501c-1.53,0-2.127,0.465-2.127,1.752v2.378h3.572l-0.318,3.504H9.97V39.746z
	 M19.876,25.199c-0.063,0-0.127,0.003-0.191,0.004c-4.003,0-5.835,3.012-5.835,7.286c0,5.385,2.376,7.54,5.866,7.54
	c1.997,0,3.309-0.841,4.106-2.409v2.128h4.106V25.48h-4.106v2.194C23.171,26.263,21.822,25.216,19.876,25.199z M20.92,28.57
	c1.682,0,2.691,1.174,2.691,3.168l0.004,2.037c0,1.345-0.833,2.918-2.695,2.918c-2.861,0-2.784-3.089-2.784-4.118
	C18.136,29.114,19.66,28.57,20.92,28.57z M29.587,32.614c0-1.732-0.083-7.406,7.308-7.406c2.967,0,4.206,0.943,4.206,0.943
	l-0.996,3.089c0,0-1.237-0.682-2.849-0.682c-2.065,0-3.382,1.197-3.382,3.303l0.002,1.511c0,2.023,1.271,3.374,3.384,3.374
	c1.468,0,2.822-0.688,2.822-0.688l0.993,3.024c0,0-1.132,0.948-4.159,0.948C29.878,40.031,29.587,34.941,29.587,32.614
	L29.587,32.614z M65.178,25.203c4.004,0,5.863,3.012,5.863,7.286c0,5.385-2.375,7.54-5.865,7.54c-1.998,0-3.474-0.841-4.271-2.409
	v2.128l-4.054-0.002v-21.4l4.304-0.375v9.511C61.776,25.817,63.818,25.203,65.178,25.203L65.178,25.203z M63.971,28.57
	c-1.681,0-2.816,1.174-2.816,3.168l-0.003,2.037c-0.003,1.345,0.786,2.918,2.819,2.918c2.861,0,2.785-3.089,2.785-4.118
	C66.756,29.114,65.231,28.57,63.971,28.57L63.971,28.57z M48.57,25.215c-4.541,0-6.938,2.476-6.938,6.875v0.817
	c0,5.711,3.367,7.181,7.38,7.181c3.901,0,5.667-1.091,5.667-1.091l-0.805-2.906c0,0-2.077,0.884-4.345,0.884
	c-2.351,0-3.362-0.599-3.621-2.858h9.116v-2.331C55.022,27.013,52.332,25.215,48.57,25.215L48.57,25.215z M48.68,28.125
	c1.571,0,2.59,0.964,2.534,3.199h-5.299C46.006,28.971,47.105,28.125,48.68,28.125L48.68,28.125z M79.626,25.195
	c-4.663,0-7.118,2.628-7.118,7.337c0,6.461,4.232,7.501,7.126,7.501c4.236,0,7.056-2.281,7.056-7.442
	C86.689,27.219,83.52,25.195,79.626,25.195z M79.567,28.582c2.051,0,2.862,1.535,2.862,3.281v1.502c0,2.116-1.137,3.34-2.87,3.34
	c-1.622,0-2.761-1.146-2.761-3.34v-1.502C76.799,29.522,78.154,28.582,79.567,28.582L79.567,28.582z M95.266,25.195
	c-4.663,0-7.118,2.628-7.118,7.337c0,6.461,4.232,7.501,7.126,7.501c4.236,0,7.055-2.281,7.055-7.442
	C102.328,27.219,99.159,25.195,95.266,25.195z M95.207,28.582c2.051,0,2.862,1.535,2.862,3.281v1.502c0,2.116-1.137,3.34-2.87,3.34
	c-1.622,0-2.762-1.146-2.762-3.34v-1.502C92.438,29.522,93.794,28.582,95.207,28.582L95.207,28.582z M103.956,39.746v-21.4
	l4.316-0.375v14.344l4.284-6.835h4.56l-4.469,7.079l4.641,7.188h-4.572l-4.443-6.979v6.979H103.956z"/>
</svg>
