<svg xmlns="http://www.w3.org/2000/svg" width="120" height="60" xml:space="preserve"><path fill="#3C8BD9" d="M6.455 23.095c.169-.445.402-.854.748-1.186 1.383-1.349 3.67-1.01 4.608.685.706 1.284 1.454 2.541 2.181 3.811 1.214 2.111 2.442 4.221 3.642 6.339 1.009 1.771-.085 4.008-2.089 4.311-1.229.184-2.378-.38-3.014-1.482-1.065-1.855-2.138-3.711-3.204-5.561a.63.63 0 0 0-.078-.113c-.113-.091-.163-.226-.233-.345-.472-.834-.959-1.659-1.432-2.485-.304-.537-.621-1.065-.924-1.602a2.908 2.908 0 0 1-.388-1.553c.021-.283.055-.566.183-.819"/><path fill="#FABC04" d="M6.455 23.095a4 4 0 0 0-.135.776 3.049 3.049 0 0 0 .424 1.659 779.827 779.827 0 0 1 2.322 4.016c.07.119.126.239.197.352-.423.734-.847 1.462-1.277 2.196-.593 1.023-1.186 2.052-1.786 3.075-.028 0-.035-.013-.042-.035-.007-.056.014-.104.028-.161.289-1.059.049-1.998-.678-2.803-.444-.486-1.008-.762-1.658-.854-.846-.12-1.595.1-2.265.629-.12.093-.197.225-.339.296-.028 0-.042-.014-.05-.036.34-.586.671-1.171 1.01-1.757C3.602 28.02 5 25.593 6.405 23.172c.014-.028.036-.049.05-.077"/><path fill="#34A852" d="M1.225 32.228c.134-.121.261-.248.402-.36 1.715-1.355 4.292-.374 4.666 1.772a3.098 3.098 0 0 1-.114 1.502.565.565 0 0 1-.028.12c-.063.112-.12.233-.19.346-.627 1.038-1.553 1.553-2.766 1.477C1.804 36.985.71 35.94.52 34.557a2.821 2.821 0 0 1 .388-1.877c.07-.127.154-.241.232-.366.036-.03.021-.086.085-.086"/><path fill="#FABC04" d="M1.225 32.228c-.029.027-.029.078-.077.085-.008-.051.021-.078.048-.114l.029.029"/><path fill="#E1C025" d="M6.151 35.262c-.028-.049 0-.085.028-.12.008.007.022.022.029.027l-.057.093"/><path fill="#757575" d="M30.364 21.104c-4.363 0-7.992 3.514-7.992 7.838s3.629 7.799 7.992 7.799c2.355 0 4.092-.771 5.483-2.201 1.427-1.428 1.853-3.397 1.853-4.979 0-.502-.038-.966-.116-1.352h-7.22v2.123H35.5c-.155 1.197-.541 2.085-1.159 2.703-.733.732-1.93 1.583-3.977 1.583-3.166 0-5.637-2.549-5.637-5.676 0-3.128 2.471-5.676 5.637-5.676 1.699 0 2.973.656 3.861 1.544l1.506-1.506c-1.275-1.235-2.974-2.2-5.367-2.2zm13.089 5.599c-2.741 0-5.02 2.124-5.02 5.096 0 2.935 2.24 5.098 5.02 5.098 2.78 0 5.019-2.163 5.019-5.098 0-2.934-2.278-5.096-5.019-5.096m0 8.185c-1.506 0-2.819-1.273-2.819-3.089 0-1.813 1.313-3.088 2.819-3.088s2.818 1.237 2.818 3.088c0 1.815-1.312 3.089-2.818 3.089m10.888-8.185c-2.781 0-5.019 2.124-5.019 5.096 0 2.935 2.238 5.098 5.019 5.098 2.741 0 5.019-2.163 5.019-5.098 0-2.934-2.24-5.096-5.019-5.096m0 8.185c-1.506 0-2.819-1.273-2.819-3.089 0-1.813 1.313-3.088 2.819-3.088 1.505 0 2.818 1.237 2.818 3.088 0 1.815-1.273 3.089-2.818 3.089m10.849-8.185c-2.51 0-4.789 2.201-4.789 5.058 0 2.818 2.279 5.02 4.789 5.02 1.196 0 2.123-.541 2.626-1.158h.076v.732c0 1.932-1.004 2.974-2.664 2.974-1.351 0-2.162-.966-2.509-1.775l-1.931.81c.54 1.353 2.007 2.974 4.439 2.974 2.588 0 4.749-1.544 4.749-5.25V27.05h-2.085v.81h-.076c-.501-.616-1.428-1.157-2.625-1.157m.192 8.109c-1.504 0-2.778-1.276-2.778-3.051 0-1.775 1.274-3.089 2.778-3.089 1.507 0 2.665 1.314 2.665 3.089 0 1.774-1.158 3.051-2.665 3.051m6.218-13.09h2.2v14.903h-2.2V21.722zm8.107 4.981c-2.625 0-4.826 2.046-4.826 5.096 0 2.858 2.163 5.098 5.059 5.098a5.053 5.053 0 0 0 4.247-2.239l-1.737-1.159c-.579.85-1.391 1.39-2.51 1.39-1.158 0-1.971-.501-2.471-1.543l6.834-2.819-.231-.578c-.425-1.122-1.739-3.246-4.365-3.246m-2.625 4.942c-.077-1.969 1.544-2.973 2.664-2.973.888 0 1.66.425 1.892 1.082l-4.556 1.891zM88.163 36.394l5.098-13.552h1.968l5.098 13.552h-1.932l-1.312-3.668h-5.678l-1.313 3.668h-1.929zm3.822-5.29h4.518l-2.2-6.101h-.078l-2.24 6.101zM102.102 35.274c-.85-.965-1.274-2.124-1.274-3.514 0-1.351.425-2.51 1.274-3.513.888-.966 1.891-1.429 3.127-1.429.694 0 1.313.154 1.854.425.579.309 1.004.657 1.313 1.158h.078l-.078-1.274v-4.286h1.737v13.552h-1.659v-1.274h-.078c-.309.464-.733.852-1.313 1.159s-1.197.425-1.854.425c-1.237 0-2.278-.464-3.127-1.429m5.482-1.081c.579-.618.85-1.429.85-2.433 0-.966-.271-1.775-.85-2.394-.541-.618-1.236-.927-2.085-.927-.85 0-1.544.309-2.086.927-.578.618-.849 1.428-.849 2.394 0 .965.271 1.774.849 2.394.579.618 1.275.927 2.086.927.849.038 1.544-.269 2.085-.888M118.162 35.854c-.694.54-1.583.85-2.663.85-.927 0-1.737-.233-2.471-.732-.696-.504-1.197-1.122-1.506-1.932l1.544-.657c.231.542.541 1.005 1.004 1.313.426.31.927.464 1.429.464.541 0 1.004-.115 1.39-.347.386-.232.541-.541.541-.85 0-.58-.463-1.042-1.351-1.313l-1.583-.386c-1.814-.464-2.704-1.313-2.704-2.626 0-.849.349-1.505 1.043-2.046.694-.502 1.583-.772 2.625-.772.811 0 1.545.193 2.24.58a3.24 3.24 0 0 1 1.389 1.583l-1.543.656a2.18 2.18 0 0 0-.851-.926c-.385-.232-.849-.348-1.351-.348a2.29 2.29 0 0 0-1.235.348c-.348.232-.541.502-.541.85 0 .54.502.926 1.507 1.119l1.389.348c1.854.463 2.74 1.39 2.74 2.779.04.809-.347 1.504-1.042 2.045"/></svg>
