<svg xmlns="http://www.w3.org/2000/svg" width="120" height="60" xml:space="preserve"><path fill="#1877F2" d="M9.97 39.746H5.652V28.983H2.711v-3.504h2.941v-2.493c0-2.955 1.301-5.074 5.606-5.074.911 0 2.34.184 2.34.184v3.254h-1.501c-1.53 0-2.127.465-2.127 1.752v2.378h3.572l-.318 3.504H9.97v10.762zm9.906-14.547c-.063 0-.127.003-.191.004-4.003 0-5.835 3.012-5.835 7.286 0 5.385 2.376 7.54 5.866 7.54 1.997 0 3.309-.841 4.106-2.409v2.128h4.106V25.48h-4.106v2.194c-.651-1.411-2-2.458-3.946-2.475zm1.044 3.371c1.682 0 2.691 1.174 2.691 3.168l.004 2.037c0 1.345-.833 2.918-2.695 2.918-2.861 0-2.784-3.089-2.784-4.118 0-3.461 1.524-4.005 2.784-4.005zm8.667 4.044c0-1.732-.083-7.406 7.308-7.406 2.967 0 4.206.943 4.206.943l-.996 3.089s-1.237-.682-2.849-.682c-2.065 0-3.382 1.197-3.382 3.303l.002 1.511c0 2.023 1.271 3.374 3.384 3.374 1.468 0 2.822-.688 2.822-.688l.993 3.024s-1.132.948-4.159.948c-7.038.001-7.329-5.089-7.329-7.416zm35.591-7.411c4.004 0 5.863 3.012 5.863 7.286 0 5.385-2.375 7.54-5.865 7.54-1.998 0-3.474-.841-4.271-2.409v2.128l-4.054-.002v-21.4l4.304-.375v9.511c.621-1.665 2.663-2.279 4.023-2.279zm-1.207 3.367c-1.681 0-2.816 1.174-2.816 3.168l-.003 2.037c-.003 1.345.786 2.918 2.819 2.918 2.861 0 2.785-3.089 2.785-4.118 0-3.461-1.525-4.005-2.785-4.005zM48.57 25.215c-4.541 0-6.938 2.476-6.938 6.875v.817c0 5.711 3.367 7.181 7.38 7.181 3.901 0 5.667-1.091 5.667-1.091l-.805-2.906s-2.077.884-4.345.884c-2.351 0-3.362-.599-3.621-2.858h9.116v-2.331c-.002-4.773-2.692-6.571-6.454-6.571zm.11 2.91c1.571 0 2.59.964 2.534 3.199h-5.299c.091-2.353 1.19-3.199 2.765-3.199zm30.946-2.93c-4.663 0-7.118 2.628-7.118 7.337 0 6.461 4.232 7.501 7.126 7.501 4.236 0 7.056-2.281 7.056-7.442-.001-5.372-3.17-7.396-7.064-7.396zm-.059 3.387c2.051 0 2.862 1.535 2.862 3.281v1.502c0 2.116-1.137 3.34-2.87 3.34-1.622 0-2.761-1.146-2.761-3.34v-1.502c.001-2.341 1.356-3.281 2.769-3.281zm15.699-3.387c-4.663 0-7.118 2.628-7.118 7.337 0 6.461 4.232 7.501 7.126 7.501 4.236 0 7.055-2.281 7.055-7.442-.001-5.372-3.17-7.396-7.063-7.396zm-.059 3.387c2.051 0 2.862 1.535 2.862 3.281v1.502c0 2.116-1.137 3.34-2.87 3.34-1.622 0-2.762-1.146-2.762-3.34v-1.502c.001-2.341 1.357-3.281 2.77-3.281zm8.749 11.164v-21.4l4.316-.375v14.344l4.284-6.835h4.56l-4.469 7.079 4.641 7.188h-4.572l-4.443-6.979v6.979h-4.317z"/></svg>