<?xml version="1.0" encoding="utf-8"?>
<!-- Generator: Adobe Illustrator 16.0.0, SVG Export Plug-In . SVG Version: 6.00 Build 0)  -->
<!DOCTYPE svg PUBLIC "-//W3C//DTD SVG 1.1//EN" "http://www.w3.org/Graphics/SVG/1.1/DTD/svg11.dtd">
<svg version="1.1" id="Layer_1" xmlns="http://www.w3.org/2000/svg" xmlns:xlink="http://www.w3.org/1999/xlink" x="0px" y="0px"
	 width="800px" height="800px" viewBox="0 0 800 800" enable-background="new 0 0 800 800" xml:space="preserve">
<path fill="none" stroke="#000000" stroke-width="20" stroke-miterlimit="10" d="M395.229,68.095
	C564,70.631,578.522,145.293,713.637,145.293C713.637,467.718,571.209,730,395.197,730h0.032
	c-176.013,0-318.44-262.282-318.44-584.707C211.903,145.293,226.333,72.145,395.229,68.095z"/>
<g>
	<path d="M274.444,287.294c8.784,0,16.693,1.281,23.729,3.843c7.034,2.562,13.033,6.121,17.995,10.675
		c4.96,4.556,8.763,9.985,11.407,16.287c2.642,6.304,3.965,13.237,3.965,20.801c0,6.508-0.915,12.526-2.745,18.056
		c-1.83,5.532-4.331,10.797-7.503,15.799s-6.853,9.842-11.041,14.518c-4.19,4.678-8.643,9.415-13.359,14.213l-34.77,35.623
		c4.472-1.299,8.885-2.336,13.237-3.11c4.35-0.772,8.437-1.159,12.261-1.159h33.184c4.066,0,7.278,1.119,9.638,3.355
		c2.358,2.238,3.538,5.185,3.538,8.845V467H209.052v-12.2c0-2.358,0.488-4.88,1.464-7.563c0.976-2.685,2.684-5.125,5.124-7.32
		l51.24-51.606c4.392-4.392,8.214-8.58,11.468-12.566c3.252-3.984,5.936-7.909,8.052-11.773c2.114-3.862,3.7-7.726,4.758-11.59
		c1.056-3.862,1.586-7.949,1.586-12.261c0-7.076-1.689-12.505-5.063-16.287c-3.376-3.782-8.521-5.673-15.433-5.673
		c-2.848,0-5.45,0.408-7.808,1.22c-2.36,0.814-4.474,1.912-6.344,3.294c-1.872,1.384-3.477,3.01-4.819,4.88
		c-1.342,1.872-2.421,3.904-3.233,6.1c-1.302,3.66-2.949,6.304-4.941,7.93c-1.994,1.628-4.697,2.44-8.113,2.44
		c-0.814,0-1.689-0.04-2.623-0.122c-0.936-0.08-1.891-0.202-2.867-0.366l-20.008-3.538c1.3-8.864,3.801-16.592,7.503-23.18
		c3.7-6.588,8.296-12.078,13.786-16.47c5.49-4.392,11.773-7.665,18.849-9.821C258.706,288.373,266.31,287.294,274.444,287.294z"/>
	<path d="M479.156,378.062c0,15.536-1.668,28.997-5.002,40.381c-3.336,11.389-7.95,20.822-13.847,28.305
		c-5.898,7.484-12.892,13.054-20.984,16.714c-8.094,3.66-16.856,5.49-26.291,5.49c-9.436,0-18.158-1.83-26.169-5.49
		c-8.012-3.66-14.944-9.229-20.801-16.714c-5.856-7.482-10.431-16.916-13.725-28.305c-3.294-11.385-4.941-24.845-4.941-40.381
		c0-15.534,1.647-28.994,4.941-40.382c3.294-11.386,7.869-20.82,13.725-28.304c5.856-7.482,12.789-13.033,20.801-16.653
		c8.011-3.618,16.733-5.429,26.169-5.429c9.435,0,18.197,1.811,26.291,5.429c8.093,3.62,15.086,9.171,20.984,16.653
		c5.896,7.484,10.511,16.918,13.847,28.304C477.488,349.068,479.156,362.528,479.156,378.062z M440.116,378.062
		c0-12.28-0.773-22.345-2.317-30.195c-1.546-7.848-3.6-14.009-6.161-18.483c-2.563-4.472-5.471-7.543-8.723-9.211
		c-3.255-1.666-6.549-2.501-9.883-2.501c-3.336,0-6.608,0.835-9.82,2.501c-3.214,1.668-6.061,4.739-8.54,9.211
		c-2.482,4.474-4.475,10.635-5.979,18.483c-1.506,7.85-2.257,17.915-2.257,30.195c0,12.364,0.751,22.448,2.257,30.256
		c1.504,7.808,3.496,13.969,5.979,18.482c2.479,4.514,5.326,7.605,8.54,9.272c3.212,1.668,6.484,2.501,9.82,2.501
		c3.334,0,6.628-0.833,9.883-2.501c3.252-1.667,6.16-4.759,8.723-9.272c2.562-4.514,4.615-10.675,6.161-18.482
		C439.343,400.51,440.116,390.426,440.116,378.062z"/>
	<path d="M569.921,323.162v48.312h45.141v27.084h-45.141v48.555h-30.744v-48.555h-44.896v-27.084h44.896v-48.312H569.921z"/>
</g>
<g>
</g>
<g>
</g>
<g>
</g>
<g>
</g>
<g>
</g>
<g>
</g>
<g>
</g>
<g>
</g>
<g>
</g>
<g>
</g>
<g>
</g>
<g>
</g>
<g>
</g>
<g>
</g>
<g>
</g>
</svg>
