<?xml version="1.0" encoding="utf-8"?>
<!-- Generator: Adobe Illustrator 16.0.0, SVG Export Plug-In . SVG Version: 6.00 Build 0)  -->
<!DOCTYPE svg PUBLIC "-//W3C//DTD SVG 1.1//EN" "http://www.w3.org/Graphics/SVG/1.1/DTD/svg11.dtd">
<svg version="1.1" id="Layer_1" xmlns="http://www.w3.org/2000/svg" xmlns:xlink="http://www.w3.org/1999/xlink" x="0px" y="0px"
	 width="800px" height="800px" viewBox="0 0 800 800" enable-background="new 0 0 800 800" xml:space="preserve">
<g>
	<path fill="none" stroke="#333333" stroke-width="15" stroke-miterlimit="10" d="M43.5,197.5c0-2.75,2.25-5,5-5h708
		c2.75,0,5,2.25,5,5v570c0,2.75-2.25,5-5,5h-708c-2.75,0-5-2.25-5-5V197.5z"/>
</g>
<polygon fill="#2D5491" points="656.811,78 656.811,137 604.02,137 604.02,78 204.025,78 204.025,137 151.234,137 151.234,78 
	35.5,78 35.5,210 769.5,210 769.5,78 "/>
<g>
	<path fill="none" stroke="#2D5491" stroke-width="15" stroke-miterlimit="10" d="M207.5,131.5c0,4.418-3.582,8-8,8h-35
		c-4.418,0-8-3.582-8-8v-106c0-4.418,3.582-8,8-8h35c4.418,0,8,3.582,8,8V131.5z"/>
</g>
<g>
	<path fill="none" stroke="#2D5491" stroke-width="15" stroke-miterlimit="10" d="M653.5,131.5c0,4.418-3.582,8-8,8h-35
		c-4.418,0-8-3.582-8-8v-106c0-4.418,3.582-8,8-8h35c4.418,0,8,3.582,8,8V131.5z"/>
</g>
<path fill="#F24A47" d="M563.381,486.035c0,89.733-72.743,162.479-162.478,162.479c-89.735,0-162.478-72.744-162.478-162.479
	c0-89.733,72.743-162.477,162.479-162.477C490.639,323.558,563.381,396.302,563.381,486.035z M382.109,572.066l120.548-120.549
	c4.094-4.094,4.094-10.73,0-14.823l-14.824-14.824c-4.093-4.095-10.729-4.095-14.824,0l-98.312,98.312l-45.899-45.899
	c-4.093-4.095-10.729-4.095-14.824,0l-14.824,14.823c-4.094,4.095-4.094,10.73,0,14.824l68.136,68.138
	C371.379,576.16,378.016,576.16,382.109,572.066L382.109,572.066z"/>
</svg>
