<?xml version="1.0" encoding="utf-8"?>
<!-- Generator: Adobe Illustrator 16.0.0, SVG Export Plug-In . SVG Version: 6.00 Build 0)  -->
<!DOCTYPE svg PUBLIC "-//W3C//DTD SVG 1.1//EN" "http://www.w3.org/Graphics/SVG/1.1/DTD/svg11.dtd">
<svg version="1.1" id="Layer_1" xmlns="http://www.w3.org/2000/svg" xmlns:xlink="http://www.w3.org/1999/xlink" x="0px" y="0px"
	 width="800px" height="800px" viewBox="0 0 800 800" enable-background="new 0 0 800 800" xml:space="preserve">
<path stroke="#000000" stroke-miterlimit="10" d="M641.165,317.554c15.284,0.181,28.66,4.532,28.672,20.472
	c0.011,13.341-2.576,21.363-2.576,21.363c-0.409,1.145,0.686,10.978-7.549,10.95c0,0-2.321-0.673-3.349-24.825
	c-2.403-14.522-12.319-13.616-37.504-13.616c-22.399,0-49.36-1.997-49.36,13.616c0.049,19.489-6.928,24.853-6.928,24.853
	c-2.685-1.518-3.911-1.211-4.678-4.584l-4.247-30.79c0-22.072,28.392-44.143,76.014-44.143
	c-17.399,11.026-14.809,18.775-14.809,18.775c7.336-4.421,16.455-9.388,36.792-9.388c-9.038,4.694-10.305,11.99-10.305,17.316
	l-0.771-0.182L641.165,317.554L641.165,317.554z"/>
<path fill="none" stroke="#000000" stroke-width="5" stroke-miterlimit="10" d="M661.936,363.788
	c-4.438,51.525-9.25,80.15-48.894,80.15c-41.257,0-46.269-28.625-50.888-80.15"/>
<path fill="none" stroke="#000000" stroke-width="5" stroke-miterlimit="10" d="M611.719,475.986
	c17.302,0,47.832-6.941,50.479-22.971l-0.28,1.283c0.993-5.188,4.778-6.931,10.222-6.419c67.463,5.188,69.005,18.166,69.005,35.229
	v-1.385v102.273H611.719h1.227H478.61V481.725v1.385c0-17.063,6.784-30.092,73.727-35.281l0.091,0.052
	c5.4-0.512,9.541,1.232,10.524,6.419l-0.084-1.283c2.626,16.027,32.915,22.971,50.085,22.971"/>
<path fill="none" stroke="#2D5491" stroke-width="5" stroke-miterlimit="10" d="M563.26,566.823h96.917v15.948H563.26V566.823z"/>
<path fill="#2D5491" d="M570.328,529.692l-1.021,2.044l10.729,6.131c0,5.109-2.043,9.195-6.642,11.748l-10.729-6.13l-0.511,1.022
	c2.555,7.664,7.664,12.773,17.881,12.773c2.555,0,7.997,5.453,12.085,9.541h16.737c-4.087-4.086-19.624-19.248-19.624-21.804
	C589.232,535.822,586.678,529.692,570.328,529.692L570.328,529.692z M644.672,564.902l6.786-13.386l5.004-3.171l5.047-16.666
	l-5.442-2.674l-10.486,13.987l0.436,5.844l-7.637,15.067"/>
<path fill="none" stroke="#2D5491" stroke-width="5" stroke-miterlimit="10" d="M617.852,583.998h-5.93h1.23h-91.604v-46.93v1.209
	c0-6.398,2.958-9.051,5.93-9.051c5.55,0,6.339-6.888,6.339-13.777v0.863v-59.287v0.561c0-7.615,6.773-8.998,9.77-8.998l0.02,0.026
	l10.648-0.768c10.043-0.054,9.313,8.354,9.313,17.765l0.152,44.881c0,5.62,3.242,12.165,7.47,12.165h-1.077h44.061 M611.719,522.659
	h6.133"/>
<path fill="none" stroke="#2D5491" stroke-width="5" stroke-miterlimit="10" d="M606.811,583.998h6.544h-1.231h90.991v-46.93v1.209
	c0-6.398-2.958-9.051-5.929-9.051c-5.551,0-6.338-6.888-6.338-13.777v0.863v-59.287v0.561c0-7.615-6.34-8.766-9.329-8.971
	l-10.571-0.767c-10.042-0.054-9.276,8.354-9.276,17.764l-0.132,44.881c0,5.62-3.224,12.166-7.45,12.166h1.075h-44.673"/>
<g>
	<g>
		
			<path fill="#2D5491" stroke="#2D5491" stroke-width="5" stroke-linecap="round" stroke-linejoin="round" stroke-miterlimit="10" d="
			M108.691,377.127v-46.121c0-8.19,0-31.254,26.115-23.71c5.927-18.179,96.457-17.783,92.655,23.71v46.121"/>
	</g>
</g>
<path fill="none" stroke="#000000" stroke-width="5" stroke-miterlimit="10" d="M169.917,474.574
	c17.302,0,47.833-6.942,50.479-22.971l-0.28,1.283c0.994-5.188,4.779-6.931,10.222-6.419c67.463,5.188,69.005,18.166,69.005,35.229
	v-1.385v102.273H169.917h1.227H36.81V480.313v1.385c0-17.063,6.785-30.092,73.727-35.281l0.091,0.052
	c5.401-0.512,9.541,1.232,10.524,6.419l-0.084-1.283c2.626,16.027,32.915,22.971,50.085,22.971"/>
<line fill="#FFFDFD" stroke="#000000" stroke-width="5" stroke-linecap="round" stroke-linejoin="round" stroke-miterlimit="10" x1="115.279" y1="405.735" x2="115.279" y2="405.735"/>
<path fill="#FFFFFF" stroke="#000000" stroke-width="5" stroke-miterlimit="10" d="M227.461,377.127
	c0,34.484-26.587,62.438-59.385,62.438c-32.798,0-59.385-27.954-59.385-62.438s26.587-55.282,59.385-55.282
	C200.874,321.845,227.461,342.643,227.461,377.127z"/>
<line fill="none" stroke="#000000" stroke-width="5" stroke-linecap="round" stroke-linejoin="round" stroke-miterlimit="10" x1="95.469" y1="582.586" x2="95.469" y2="519.609"/>
<line fill="none" stroke="#000000" stroke-width="5" stroke-linecap="round" stroke-linejoin="round" stroke-miterlimit="10" x1="238.538" y1="581.826" x2="238.538" y2="518.85"/>
<polygon fill="#2D5491" stroke="#2D5491" stroke-width="5" stroke-miterlimit="10" points="222.372,556.2 205.397,563.661 
	188.423,556.2 188.423,541.946 188.423,527.691 205.397,527.691 222.372,527.691 222.372,541.946 "/>
<rect x="251.551" y="193.542" fill="#2D5491" stroke="#2D5491" stroke-width="5" stroke-linecap="round" stroke-linejoin="round" stroke-miterlimit="10" width="186.708" height="102.293"/>
<polygon fill="#2D5491" stroke="#2D5491" stroke-width="5" stroke-linecap="round" stroke-linejoin="round" stroke-miterlimit="10" points="
	299.343,295.836 278.684,321.845 278.684,295.836 299.343,295.836 "/>
<rect x="358.047" y="266.457" stroke="#000000" stroke-miterlimit="10" width="186.708" height="102.293"/>
<polygon stroke="#000000" stroke-miterlimit="10" points="496.963,368.75 517.622,394.759 517.622,368.75 496.963,368.75 "/>
<g>
</g>
<g>
</g>
<g>
</g>
<g>
</g>
<g>
</g>
<g>
</g>
<g>
</g>
<g>
</g>
<g>
</g>
<g>
</g>
<g>
</g>
<g>
</g>
<g>
</g>
<g>
</g>
<g>
</g>
</svg>
