<svg xmlns="http://www.w3.org/2000/svg" xml:space="preserve" viewBox="0 0 250 250"><path stroke="#800000018000000180000001" stroke-miterlimit="10" d="M149.004 27.313c12.458.147 23.361 3.694 23.371 16.687.008 10.875-2.101 17.414-2.101 17.414-.333.933.559 8.948-6.153 8.926 0 0-1.892-.549-2.729-20.236-1.959-11.838-10.042-11.099-30.571-11.099-18.259 0-40.235-1.628-40.235 11.099.04 15.886-5.647 20.258-5.647 20.258-2.188-1.237-3.188-.987-3.813-3.737l-3.462-25.097c0-17.991 23.143-35.982 61.961-35.982-14.183 8.988-12.071 15.304-12.071 15.304 5.98-3.604 13.413-7.652 29.99-7.652-7.367 3.826-8.399 9.773-8.399 14.115l-.629-.148.488.148z"/><path fill="none" stroke="#000" stroke-miterlimit="10" stroke-width="5" d="M165.934 65c-3.618 42-7.541 65.333-39.854 65.333C92.449 130.333 88.364 107 84.599 65M125 156.456c14.104 0 38.99-5.659 41.147-18.724l-.229 1.046c.81-4.229 3.896-5.65 8.332-5.232 54.992 4.229 56.249 14.807 56.249 28.716v-1.128V244.5H125h1H16.5v-83.366 1.128c0-13.909 5.53-24.529 60.097-28.759l.074.043c4.402-.418 7.777 1.004 8.579 5.232l-.069-1.046c2.14 13.064 26.83 18.724 40.825 18.724"/><path fill="none" stroke="#2D5491" stroke-miterlimit="10" stroke-width="5" d="M85.5 230.5h79v13h-79z"/><path fill="#2D5491" d="m91.262 200.234-.833 1.665 8.745 4.997c0 4.166-1.665 7.496-5.413 9.578l-8.746-4.997-.416.833c2.082 6.247 6.247 10.412 14.575 10.412 2.083 0 6.519 4.445 9.851 7.777h13.643c-3.331-3.331-15.996-15.69-15.996-17.773-.001-7.496-2.083-12.492-15.41-12.492zM151.862 228.934l5.531-10.912 4.079-2.583 4.114-13.585-4.436-2.18-8.548 11.401.355 4.764-6.225 12.282"/><path fill="none" stroke="#2D5491" stroke-miterlimit="10" stroke-width="5" d="M130 244.5h-4.834 1.003H51.5v-38.255.986c0-5.216 2.411-7.377 4.833-7.377 4.524 0 5.167-5.615 5.167-11.231v.705V141v.458c0-6.208 5.521-7.336 7.963-7.336l.016.022 8.68-.625c8.186-.044 7.591 6.81 7.591 14.48l.124 36.584c0 4.581 2.644 9.916 6.089 9.916h-.877H127M125 194.5h5"/><path fill="none" stroke="#2D5491" stroke-miterlimit="10" stroke-width="5" d="M121 244.5h5.334-1.003H199.5v-38.255.986c0-5.216-2.411-7.377-4.833-7.377-4.524 0-5.167-5.615-5.167-11.231v.705V141v.458c0-6.208-5.167-7.146-7.604-7.313l-8.617-.625c-8.186-.044-7.561 6.81-7.561 14.48l-.108 36.584c0 4.581-2.628 9.916-6.073 9.916h.877H124"/></svg>
