<?xml version="1.0" encoding="utf-8"?>
<!-- Generator: Adobe Illustrator 16.0.0, SVG Export Plug-In . SVG Version: 6.00 Build 0)  -->
<!DOCTYPE svg PUBLIC "-//W3C//DTD SVG 1.1//EN" "http://www.w3.org/Graphics/SVG/1.1/DTD/svg11.dtd">
<svg version="1.1" id="Layer_1" xmlns="http://www.w3.org/2000/svg" xmlns:xlink="http://www.w3.org/1999/xlink" x="0px" y="0px"
	 width="800px" height="800px" viewBox="0 0 800 800" enable-background="new 0 0 800 800" xml:space="preserve">
<g>
	<path d="M319.255,66.548c-3.111-3.111-5.791-5.479-5.955-5.263s-0.299,0.242-0.299,0.054c0-0.187-3.6-0.34-8-0.34h-233
		c-4.4,0-8,3.6-8,8v232c0,4.4,0.256,8,0.568,8c0.313,0,0.332,0.254,0.043,0.565c-0.289,0.312,2.02,3.112,5.131,6.223l462.081,462.12
		c3.11,3.111,8.202,3.112,11.314,0.002l238.1-237.991c3.112-3.11,3.113-8.201,0.002-11.313L319.255,66.548z M182.001,223
		c-33.137,0-60-26.863-60-60s26.863-60,60-60s60,26.863,60,60S215.139,223,182.001,223z M517.738,412.312
		c-0.605,5.11-1.229,7.398-1.229,7.398c-1.157,4.244-5.614,6.918-9.904,5.941l-1.898-0.433c-4.29-0.977-10.464-2.881-13.72-4.23
		c0,0,0,0-1.963-1.963c-2.656-2.658-3.957-6.15-3.898-10.482c0.057-4.447-0.26-8.113-0.953-11.001
		c-0.693-2.887-2.311-5.602-4.852-8.143c-4.676-4.678-9.789-6.525-15.33-5.543c-5.545,0.981-11.279,5.622-11.279,5.622
		c-3.42,2.768-8.765,7.578-11.876,10.689l-7.483,7.483c-3.111,3.11-3.111,8.202,0,11.313l21.603,21.603
		c3.111,3.111,3.357,7.957,0.547,10.768c-2.811,2.812-5.956,5.787-6.989,6.612c0,0,0,0-1.154,0.404
		c-1.156,0.404-2.383,0.592-3.68,0.563c-1.303-0.028-2.586-0.303-3.855-0.822c-1.273-0.521-1.273-0.521-1.273-0.521
		c-1.253-1.048-4.823-4.451-7.935-7.562l-14.154-14.154c-3.111-3.111-8.203-3.111-11.313,0l-2.2,2.199
		c-3.111,3.111-8.439,7.941-11.84,10.733c0,0-1.063,0.873-5.164,2.373c-4.101,1.503-5.139,1.63-5.139,1.63
		c-4.368,0.533-5.142,2.847-1.72,5.142c0,0,0,0,2.917,2.281c2.916,2.282,2.916,2.282,2.916,2.282
		c2.994,2.818,7.989,7.67,11.101,10.781l32.17,32.169c3.111,3.111,3.182,8.133,0.156,11.158c-3.024,3.025-6.78,6.534-8.345,7.796
		c0,0,0,0-1.876,0.779c-1.879,0.779-3.841,1.214-5.891,1.3c-2.051,0.087-4.115-0.245-6.193-0.996c-2.08-0.751-2.08-0.751-2.08-0.751
		c-2-1.636-6.182-5.52-9.293-8.631l-71.325-71.323c-3.111-3.111-3.111-8.203,0-11.314l4.798-4.798
		c3.111-3.111,7.742-4.378,10.29-2.813c0,0,0,0,2.513,1.012c2.511,1.011,5.008,1.602,7.493,1.775
		c2.483,0.174,4.936-0.146,7.364-0.952c2.423-0.809,2.423-0.809,2.423-0.809c2.431-1.985,6.965-6.155,10.076-9.267l9.303-9.303
		c3.111-3.111,3.111-8.203,0-11.314l-4.799-4.798c-3.111-3.111-3.786-7.528-1.499-9.814s6.432-5.769,9.211-7.737
		c0,0,0,0,3.176-0.232c3.176-0.229,3.176-0.229,3.176-0.229c3.304,2.366,7.644,5.939,9.645,7.94c2.001,2,6.184,1.092,9.295-2.019
		l7.396-7.397c3.111-3.111,8.394-7.996,11.738-10.855c0,0,5.453-4.663,12.066-7.924c6.612-3.264,13.511-5.053,20.702-5.371
		c7.189-0.318,14.48,0.997,21.873,3.941c7.389,2.945,14.609,7.939,21.654,14.985c4.678,4.678,8.314,9.5,10.916,14.467
		c2.598,4.966,4.328,9.989,5.195,15.071C518.215,402.105,518.344,407.2,517.738,412.312z"/>
</g>
<g>
</g>
<g>
</g>
<g>
</g>
<g>
</g>
<g>
</g>
<g>
</g>
<g>
</g>
<g>
</g>
<g>
</g>
<g>
</g>
<g>
</g>
<g>
</g>
<g>
</g>
<g>
</g>
<g>
</g>
</svg>
