<?xml version="1.0" encoding="utf-8"?>
<!-- Generator: Adobe Illustrator 16.0.0, SVG Export Plug-In . SVG Version: 6.00 Build 0)  -->
<!DOCTYPE svg PUBLIC "-//W3C//DTD SVG 1.1//EN" "http://www.w3.org/Graphics/SVG/1.1/DTD/svg11.dtd">
<svg version="1.1" id="Layer_1" xmlns="http://www.w3.org/2000/svg" xmlns:xlink="http://www.w3.org/1999/xlink" x="0px" y="0px"
	 width="800px" height="800px" viewBox="0 0 800 800" enable-background="new 0 0 800 800" xml:space="preserve">
<path fill="none" stroke="#000000" stroke-width="14" stroke-miterlimit="10" d="M684.702,411.461
	c0,150.44-121.957,272.398-272.398,272.398S139.906,561.901,139.906,411.461c0-150.441,124.251-272.398,272.398-272.398
	C562.745,139.063,684.702,261.019,684.702,411.461z"/>
<line fill="none" stroke="#000000" stroke-width="14" stroke-linecap="round" stroke-miterlimit="10" x1="138" y1="418" x2="11" y2="418"/>
<line fill="none" stroke="#000000" stroke-width="14" stroke-linecap="round" stroke-miterlimit="10" x1="143" y1="355" x2="52" y2="355"/>
<line fill="none" stroke="#000000" stroke-width="14" stroke-linecap="round" stroke-miterlimit="10" x1="167" y1="293" x2="89" y2="293"/>
<line fill="none" stroke="#000000" stroke-width="14" stroke-linecap="round" stroke-miterlimit="10" x1="144" y1="477" x2="54" y2="477"/>
<line fill="none" stroke="#000000" stroke-width="14" stroke-linecap="round" stroke-miterlimit="10" x1="165" y1="539" x2="88" y2="539"/>
<line fill="none" stroke="#000000" stroke-width="14" stroke-linecap="round" stroke-miterlimit="10" x1="537.098" y1="165.985" x2="557.618" y2="138.377"/>
<line fill="none" stroke="#000000" stroke-width="14" stroke-linecap="round" stroke-miterlimit="10" x1="557.618" y1="138.377" x2="640.509" y2="201.359"/>
<line fill="none" stroke="#000000" stroke-width="14" stroke-linecap="round" stroke-miterlimit="10" x1="640.509" y1="201.359" x2="618.721" y2="229.024"/>
<circle fill="none" stroke="#000000" stroke-width="14" stroke-linecap="round" stroke-miterlimit="10" cx="412.027" cy="412.9" r="232.354"/>
<line fill="none" stroke="#000000" stroke-width="14" stroke-linecap="round" stroke-miterlimit="10" x1="302.734" y1="344.055" x2="409.445" y2="411.179"/>
<line fill="none" stroke="#000000" stroke-width="14" stroke-linecap="round" stroke-miterlimit="10" x1="410.306" y1="411.179" x2="529.064" y2="256.276"/>
<line fill="none" stroke="#000000" stroke-width="14" stroke-linecap="round" stroke-miterlimit="10" x1="411" y1="136" x2="411" y2="100"/>
<line fill="none" stroke="#000000" stroke-width="14" stroke-linecap="round" stroke-miterlimit="10" x1="354" y1="98" x2="469" y2="98"/>
<g>
</g>
<g>
</g>
<g>
</g>
<g>
</g>
<g>
</g>
<g>
</g>
<g>
</g>
<g>
</g>
<g>
</g>
<g>
</g>
<g>
</g>
<g>
</g>
<g>
</g>
<g>
</g>
<g>
</g>
</svg>
