<?xml version="1.0" encoding="utf-8"?>
<!-- Generator: Adobe Illustrator 16.0.0, SVG Export Plug-In . SVG Version: 6.00 Build 0)  -->
<!DOCTYPE svg PUBLIC "-//W3C//DTD SVG 1.1//EN" "http://www.w3.org/Graphics/SVG/1.1/DTD/svg11.dtd">
<svg version="1.1" id="Layer_1" xmlns="http://www.w3.org/2000/svg" xmlns:xlink="http://www.w3.org/1999/xlink" x="0px" y="0px"
	 width="200px" height="200px" viewBox="0 0 200 200" enable-background="new 0 0 200 200" xml:space="preserve">
<g>
	<path fill="none" stroke="#333333" stroke-width="5" stroke-linejoin="round" stroke-miterlimit="10" d="M6.4,154.4h52.8V184H6.4
		V154.4z M11.2,73.6h48V152h-48V73.6z"/>
	<path fill="none" stroke="#333333" stroke-width="5" stroke-miterlimit="10" d="M59.2,73.6h41.6V184H59.2V73.6z"/>
	<path fill="none" stroke="#333333" stroke-width="5" stroke-miterlimit="10" d="M100.8,73.6V26.4L59.2,73.6V96h-48V73.6l89.6-47.2"
		/>
	<path fill="none" stroke="#333333" stroke-width="5" stroke-linejoin="round" stroke-miterlimit="10" d="M141.6,154.4h52V184h-52
		V154.4z M141.6,73.6h47.2V152h-47.2V73.6z"/>
	<path fill="none" stroke="#333333" stroke-width="5" stroke-miterlimit="10" d="M100.8,184h40.8V73.6h-40.8"/>
	<path fill="none" stroke="#333333" stroke-width="5" stroke-miterlimit="10" d="M100.676,26.4L141.6,73.6V96h47.2V73.6
		L100.676,26.4"/>
</g>
<path fill="#333333" d="M100.8,45.467l-9.217-16.401l9.093-14.533l10.141,14.533L100.8,45.467z"/>
<circle stroke="#333333" stroke-miterlimit="10" cx="91.3" cy="134.5" r="2.3"/>
<circle stroke="#333333" stroke-miterlimit="10" cx="110.7" cy="134.5" r="2.3"/>
<polygon fill="#333333" points="100.8,26.4 100.8,26.4 11.2,73.6 188.8,73.6 "/>
</svg>
