<?xml version="1.0" encoding="utf-8"?>
<!-- Generator: Adobe Illustrator 16.0.0, SVG Export Plug-In . SVG Version: 6.00 Build 0)  -->
<!DOCTYPE svg PUBLIC "-//W3C//DTD SVG 1.1//EN" "http://www.w3.org/Graphics/SVG/1.1/DTD/svg11.dtd">
<svg version="1.1" id="Layer_1" xmlns="http://www.w3.org/2000/svg" xmlns:xlink="http://www.w3.org/1999/xlink" x="0px" y="0px"
	 width="200px" height="200px" viewBox="0 0 200 200" enable-background="new 0 0 200 200" xml:space="preserve">
<g>
	<path fill="none" stroke="#333333" stroke-width="5" stroke-linejoin="round" stroke-miterlimit="10" d="M6.4,154.4h52.8V184H6.4
		V154.4z M11.2,73.6h48V152h-48V73.6z"/>
	<path fill="none" stroke="#333333" stroke-width="5" stroke-miterlimit="10" d="M59.417,74.5L100,83.75l-4.5,94.75L59.2,184
		L59.417,74.5z"/>
	<path fill="none" stroke="#333333" stroke-width="5" stroke-miterlimit="10" d="M100.8,73.6V26.4L59.2,73.6V96h-48V73.6l89.6-47.2"
		/>
	<path fill="none" stroke="#333333" stroke-width="5" stroke-linejoin="round" stroke-miterlimit="10" d="M141.6,154.4h52V184h-52
		V154.4z M141.6,73.6h47.2V152h-47.2V73.6z"/>
	<path fill="none" stroke="#333333" stroke-width="5" stroke-miterlimit="10" d="M100.676,26.4L141.6,73.6V96h47.2V73.6
		L100.676,26.4"/>
</g>
<circle stroke="#333333" stroke-miterlimit="10" cx="91.3" cy="134.5" r="2.3"/>
<circle stroke="#333333" stroke-miterlimit="10" cx="110.7" cy="134.5" r="2.3"/>
<polyline fill="none" stroke="#333333" stroke-width="5" stroke-miterlimit="10" points="100.8,73.6 100.8,184 141.6,184 
	141.6,73.6 100.8,73.6 "/>
<line fill="none" stroke="#333333" stroke-width="5" stroke-miterlimit="10" x1="100.8" y1="73.6" x2="59.2" y2="73.6"/>
<g>
	<polygon fill="none" stroke="#333333" stroke-width="2" stroke-miterlimit="10" points="40.833,128.8 43.833,141.167 49.833,132.2 
		45.333,126.834 43.833,118.834 46.833,115.5 40.833,108.5 35.5,110.834 31.167,106.167 28.167,115.5 34.167,126.834 31.167,134.5 
		35.5,141.167 	"/>
</g>
<g>
	<polyline fill="none" stroke="#333333" stroke-width="2" stroke-miterlimit="10" points="187.167,143.167 172.5,128.8 
		179.5,117.167 172.5,108.5 172.5,115.5 164.833,109.667 164.833,97.833 	"/>
</g>
</svg>
