<svg xmlns="http://www.w3.org/2000/svg" xml:space="preserve" viewBox="0 0 250 250"><path stroke="#800000018000000180000001" stroke-miterlimit="10" d="M149.004 27.313c12.458.147 23.361 3.694 23.371 16.687.008 10.875-2.101 17.414-2.101 17.414-.333.933.559 8.948-6.153 8.926 0 0-1.892-.549-2.729-20.236-1.959-11.838-10.042-11.099-30.571-11.099-18.259 0-40.235-1.628-40.235 11.099.04 15.886-5.647 20.258-5.647 20.258-2.188-1.237-3.188-.987-3.813-3.737l-3.462-25.097c0-17.991 23.143-35.982 61.961-35.982-14.183 8.988-12.071 15.304-12.071 15.304 5.98-3.604 13.413-7.652 29.99-7.652-7.367 3.826-8.399 9.773-8.399 14.115l-.629-.148.488.148z"/><path fill="none" stroke="#000" stroke-width="6" stroke-miterlimit="10" d="M84.599 65c3.766 42 7.851 65.333 41.481 65.333"/><path fill="none" stroke="#000" stroke-width="6" stroke-miterlimit="10" d="M165.934 65c-3.618 42-7.541 65.333-39.854 65.333"/><path fill="none" stroke="#000" stroke-width="8" stroke-miterlimit="10" d="M54 239v-32.755.986c0-5.216 2.417-7.377 4.833-7.377 4.514 0 5.167-5.615 5.167-11.231v.705V135"/><g fill="none" stroke="#000" stroke-width="8" stroke-miterlimit="10"><path d="M126 242H19v-80.866 1.128c0-13.909 4.28-24.529 58.847-28.759l-.551.043c4.402-.418 7.464 1.004 8.267 5.232l-.226-1.046c2.14 13.064 26.751 18.724 40.747 18.724M85 137v47"/></g><path fill="none" stroke="#000" stroke-width="8" stroke-miterlimit="10" d="M85 183.689c0 4.581 3.438 8.311 6.875 8.311M91 192h35M198 239v-32.755.986c0-5.216-2.396-7.377-4.833-7.377-4.549 0-5.167-5.615-5.167-11.231v.705V135"/><g fill="none" stroke="#000" stroke-width="8" stroke-miterlimit="10"><path d="M125 242h108v-80.866 1.128c0-13.909-4.313-24.529-59.305-28.759l.556.043c-4.437-.418-7.522 1.004-8.332 5.232l.229-1.046c-2.157 13.064-27.044 18.724-41.147 18.724M166 138v48"/></g><path fill="none" stroke="#000" stroke-width="8" stroke-miterlimit="10" d="M166 184c0 4.581-3.786 8-7.25 8M160 192h-35M87 229h79v13H87z"/><path d="m91.262 200.234-.833 1.665 8.745 4.997c0 4.166-1.665 7.496-5.413 9.578l-8.746-4.997-.416.833c2.082 6.247 6.247 10.412 14.575 10.412 2.083 0 8.329 6.246 11.661 9.578l6.663-6.664c-3.331-3.331-10.827-10.827-10.827-12.91 0-7.496-2.082-12.492-15.409-12.492zM146.732 227.121l-10.689 21.093M151.862 227.934l5.531-10.912 4.079-2.583 4.114-13.585-4.436-2.18-8.548 11.401.355 4.764-6.225 12.282M140.68 250l11.182-22.066"/></svg>
