<svg xmlns="http://www.w3.org/2000/svg" xml:space="preserve" viewBox="0 0 250 250"><path fill="none" stroke="#000" stroke-width="8" stroke-linecap="round" stroke-miterlimit="10" d="M201 208c0 6.627-5.373 12-12 12H53c-6.627 0-12-5.373-12-12V35c0-6.627 5.373-12 12-12h136c6.627 0 12 5.373 12 12v173z"/><path fill="none" stroke="#000" stroke-width="8" stroke-linecap="round" stroke-miterlimit="10" d="M57 44h129v147H57z"/><g fill="none" stroke="#000" stroke-width="8" stroke-miterlimit="10"><path stroke-linecap="square" d="M74 64h16M103 64h59M74 78h59"/><path stroke-linecap="round" d="m89.424 90.833-8.997 13.91L74 99.345"/><g stroke-linecap="round"><path d="M106.478 90.833 121.644 105M106.478 105l15.166-14.166"/></g></g><g fill="none" stroke="#000" stroke-width="8" stroke-miterlimit="10"><path stroke-linecap="square" d="M73 124h16M102 124h59M73 138h59"/><path stroke-linecap="round" d="m88.424 150.834-8.997 13.908L73 159.345"/><g stroke-linecap="round"><path d="M105.478 150.834 120.645 165M105.478 165l15.167-14.166"/></g></g><path fill="none" stroke="#000" stroke-width="8" stroke-linecap="round" stroke-miterlimit="10" d="m198.069 169.327 8.931 19.34"/><path fill="#F9F9F9" stroke="#000" stroke-width="8" stroke-linecap="round" stroke-miterlimit="10" d="m197.566 168.288 7.955 16.441M238.212 226.631c-1.509-3.117-2.515-8.693-.09-11.961l-.42.664c3.399-5.025 4.142-13.372-3.333-28.82l-.411-.851-7.954-16.441.503 1.039c-1.236-2.666-4.641-11.397-11.208-8.22-3.165 1.531-4.109 5.482-2.417 8.981l-1.279-2.646c-1.236-2.667-4.404-11.512-11.207-8.221-3.496 1.691-4.019 5.672-2.326 9.171-1.236-2.668-4.404-11.512-11.207-8.221-2.881 1.395-3.843 5.354-2.15 8.853l7.459 16.098.365.756-17.828-36.851.503 1.04c-1.236-2.667-4.404-11.512-11.207-8.221-2.882 1.394-3.843 5.354-2.149 8.853l17.612 36.488c1.681 3.262 4.354 8.504 1.941 9.672-2.66 1.286-3.969 1.92-6.22.713l.573.27c-5.499-3.111-17.332-10.154-23.364-6.536l.496-.24c-3.188 1.543-7.736 6.424 1.369 9.559l-.624-.184c10.572 3.533 20.143 16.401 23.417 17.934 4.221 2.074 15.719 2.702 17.783 6.969l8.229 17.008M211.603 168.377l8.198 16.789"/><path fill="none" stroke="#000" stroke-width="8" stroke-linecap="round" stroke-miterlimit="10" d="m192.536 186.813 1.997 3.937M198.069 169.327l8.075 17.486"/></svg>
