<?xml version="1.0" encoding="utf-8"?>
<!-- Generator: Adobe Illustrator 16.0.0, SVG Export Plug-In . SVG Version: 6.00 Build 0)  -->
<!DOCTYPE svg PUBLIC "-//W3C//DTD SVG 1.1//EN" "http://www.w3.org/Graphics/SVG/1.1/DTD/svg11.dtd">
<svg version="1.1" id="Layer_1" xmlns="http://www.w3.org/2000/svg" xmlns:xlink="http://www.w3.org/1999/xlink" x="0px" y="0px"
	 width="200px" height="200px" viewBox="0 0 200 200" enable-background="new 0 0 200 200" xml:space="preserve">
<g>
	<path fill="none" stroke="#333333" stroke-width="5" stroke-miterlimit="10" d="M55.2,95.6h89.6v60.8H55.2V95.6z M25.6,95.6h29.6
		v45.6H25.6V95.6z M146.4,95.6H176v45.6h-29.6V95.6z"/>
</g>
<path fill="none" stroke="#333333" stroke-width="5" stroke-miterlimit="10" d="M4.8,66H196v90.4H4.8V66z M139.047,40.4h-76.48
	L25.14,66h150.519L139.047,40.4z"/>
<path fill="none" stroke="#333333" stroke-width="5" stroke-miterlimit="10" d="M100.8,40.4v23.2 M62.4,40.4V66 M139.2,40.4V66
	 M100,95.6v60.8 M121.6,95.6v60.8 M77.6,95.6v60.8 M25.6,112.4h29.6 M148,112.4h28"/>
</svg>
