<svg xmlns="http://www.w3.org/2000/svg" xml:space="preserve" width="20" height="20"><path d="M2.959 10.632c0-.351.112-.655.335-.914.224-.259.56-.388 1.007-.388h1.104V6.489c0-.833.127-1.625.382-2.374a5.513 5.513 0 0 1 1.164-1.979c.521-.57 1.175-1.023 1.959-1.361.785-.337 1.712-.506 2.782-.506.71 0 1.353.09 1.927.27a5.467 5.467 0 0 1 2.729 1.881c.341.434.64.901.895 1.401l-1.631 1.026c-.325.175-.636.263-.935.263-.403 0-.767-.167-1.091-.5-.334-.342-.637-.596-.908-.763s-.601-.25-.986-.25c-.71 0-1.238.248-1.585.743-.346.496-.52 1.208-.52 2.137V9.33h4.998v1.552a.85.85 0 0 1-.085.375 1.146 1.146 0 0 1-1.045.637H9.588v2.052c0 .526-.099 1.002-.296 1.427a4.725 4.725 0 0 1-.795 1.19 12.52 12.52 0 0 1 1.184-.203 9.702 9.702 0 0 1 1.197-.072h6.603v1.67c0 .193-.041.391-.125.592a1.81 1.81 0 0 1-.349.546c-.148.162-.331.294-.546.395s-.453.151-.717.151H3.196v-2.446c.29-.053.568-.136.835-.25.267-.114.501-.259.704-.434.202-.176.364-.386.486-.632a1.88 1.88 0 0 0 .184-.854v-3.131H2.959v-1.263z"/></svg>
